<svg width="200" height="341.39" xmlns="http://www.w3.org/2000/svg" clip-rule="evenodd">

 <g>
  <title>background</title>
  <rect fill="none" id="canvas_background" height="343.39" width="202" y="-1" x="-1"/>
 </g>
 <g>
  <title>Layer 1</title>
  <path stroke="null" id="svg_1" d="m6.943747,136.235031c-0.710913,0 -1.286757,-0.72081 -1.286757,-1.610703c0,-0.462769 0.049765,-0.91214 0.138628,-1.361542c2.061657,-20.467751 14.865252,-25.927315 23.947203,-28.877357c4.546303,-1.472778 15.853424,-7.088058 11.346214,-14.816864c-2.52375,-4.333832 -4.809345,-7.377289 -7.098495,-11.955841c-1.652878,-3.052368 -2.52375,-5.779907 -2.52375,-7.960175c0,-2.327103 0.984615,-5.050201 2.957409,-5.668686c-0.259487,-4.685349 -0.348347,-10.8479 -0.17062,-15.862518c0.625607,-8.609818 5.559357,-14.954811 11.93272,-17.766899c2.520199,-1.20137 1.30098,-6.002396 4.087765,-6.104729c6.533318,-0.222481 17.243256,6.758804 21.42701,12.423035c2.438438,3.270386 4.002449,7.630905 4.265488,13.410828l-0.263039,14.443115c1.219223,0.43605 2.004784,1.419403 2.353127,2.945587c0.348358,1.744202 0,4.142487 -1.219223,7.524109c0,0.106812 -0.088852,0.106812 -0.088852,0.218048c-2.687256,5.544083 -5.488274,9.219376 -8.566544,14.354111c-1.372055,2.295944 -1.105476,4.489563 0.035545,6.465164c-1.603104,1.170197 -3.170685,2.518417 -4.674263,4.102448c-5.968147,6.269348 -10.578438,15.613342 -12.199314,30.492516c-0.319923,1.739746 -0.444324,3.844376 -0.213284,5.606354l-44.186968,0zm147.728281,-32.752831c-0.010651,-1.584045 -0.12793,-2.714218 1.439636,-2.687515l5.075912,0.080093c1.638657,-0.013351 2.075882,0.636276 2.05809,2.558472l0,8.667648l6.881683,0c1.261887,-0.013351 2.164749,-0.160172 2.143417,1.802048l-0.06044,6.358353c0.007126,2.051224 -0.511856,2.59407 -2.047424,2.571823l-6.917236,0l0,8.663216c0.017792,1.922165 -0.419434,2.571808 -2.05809,2.558472l-5.075912,0.080063c-1.567566,0.026688 -1.450287,-1.10347 -1.439636,-2.687531l0,-8.61422l-6.927856,0c-1.531998,0.022247 -2.050964,-0.520599 -2.043884,-2.571823l-0.060425,-6.358353c-0.024872,-1.962219 0.881531,-1.815399 2.143402,-1.802048l6.888763,0l0,-8.618698zm4.28331,-21.940567c7.923126,0 15.099823,4.022369 20.289505,10.523087c5.193237,6.500763 8.406586,15.488754 8.406586,25.402283c0,9.922409 -3.213348,18.901512 -8.406586,25.402275c-5.189682,6.500748 -12.369934,10.523117 -20.289505,10.523117c-7.926743,0 -15.099869,-4.022369 -20.293106,-10.523117l-0.159973,-0.213577c-5.1008,-6.491821 -8.246597,-15.390846 -8.246597,-25.188698c0,-9.904602 3.213318,-18.888184 8.410141,-25.388916c5.189667,-6.514084 12.366333,-10.536453 20.289536,-10.536453zm16.105759,15.760178c-4.119736,-5.156998 -9.814178,-8.34729 -16.105759,-8.34729c-6.291611,0 -11.993164,3.190292 -16.11293,8.34729c-4.123306,5.148071 -6.668396,12.28064 -6.668396,20.165192c0,7.800018 2.491791,14.865807 6.526215,19.996101l0.145752,0.169083c4.119751,5.161438 9.814148,8.35173 16.109314,8.35173c6.288055,0 11.986069,-3.190292 16.105804,-8.35173c4.123322,-5.156998 6.671967,-12.289543 6.671967,-20.165184c0,-7.871185 -2.548645,-15.008209 -6.671967,-20.165192l0,0zm-114.688469,38.951057c-0.867317,0 -1.571129,-0.881012 -1.571129,-1.971191c0,-0.556168 0.060425,-1.112335 0.170631,-1.659637c2.51664,-24.975105 14.477798,-30.403511 25.546753,-33.967583c5.314102,-1.708603 15.917397,-8.387344 14.630646,-16.997131c-2.680138,-3.110214 -5.342537,-7.408447 -5.804619,-13.82019l-0.323471,0.008896c-0.742912,-0.013336 -1.460938,-0.226929 -2.132744,-0.698578c-1.478706,-1.05452 -2.289146,-3.074615 -2.680161,-5.375c-0.817551,-7.025772 -1.027267,-10.612091 1.965691,-12.18277l0.024887,-0.013351c-0.36969,-8.667648 0.799774,-21.419952 -6.312943,-24.116348c14.040581,-21.718079 30.231689,-33.53598 42.384804,-14.211754c13.542946,0.8899 19.582161,24.899483 11.17202,38.341454l-0.355438,0c2.992966,1.570679 2.541534,5.597488 1.965668,12.18277c-0.390991,2.300385 -1.201416,4.32048 -2.680161,5.375c-0.671799,0.471649 -1.389816,0.685242 -2.132736,0.698578l-0.323456,-0.008896c-0.462097,6.411743 -3.131592,10.709976 -5.811737,13.82019c-0.433662,2.914429 0.486969,5.597488 2.107864,7.951279c-4.773796,7.697662 -7.610359,17.36644 -7.610359,27.858398c0,6.696503 1.155243,13.059288 3.23111,18.785866l-65.461128,0l0.000008,0z"/>
 </g>
</svg>